<svg xmlns="http://www.w3.org/2000/svg" viewBox="0 0 64 64" role="img" aria-labelledby="title desc">
  <title id="title">Autumn leaf</title>
  <desc id="desc">A polished copper leaf mark for Autumn.</desc>
  <path d="M15.4 43.5C10.5 30.6 16.8 16.4 29.6 10.3c6.5-3.1 13.7-3.9 20.7-2.3 2.9.7 5.1 3.1 5.4 6.1.9 7.1-.5 14.5-4.2 20.8-7.1 12.2-22.1 17-35.1 11.3-.5-.2-.8-.6-1-1.1v-1.6Z" fill="#b94722"/>
  <path d="M17.3 44.3c11.6-5 21.5-13.7 29.7-26.1" fill="none" stroke="#fff8ef" stroke-width="4.6" stroke-linecap="round"/>
  <path d="M31.4 15.8c.9 5.8 3.4 10.1 7.3 13M23.5 31.9c5.1-.1 9.4 1.2 12.8 3.8" fill="none" stroke="#f3c173" stroke-width="3.3" stroke-linecap="round"/>
  <path d="M17.1 44.7 8.5 56" fill="none" stroke="#536f43" stroke-width="5.2" stroke-linecap="round"/>
  <path d="M15.6 43.9c5.9 3.4 12.8 4.3 19.3 2.8-5.8 3.9-12.9 4.6-19.7 1.8-.8-.3-1.2-1.2-.9-2l1.3-2.6Z" fill="#8f341d" opacity=".55"/>
</svg>
